<?xml version="1.0"?>
<svg xmlns="http://www.w3.org/2000/svg" xmlns:xlink="http://www.w3.org/1999/xlink" xmlns:svgjs="http://svgjs.com/svgjs" version="1.1" width="512" height="512" x="0" y="0" viewBox="0 0 480 480.00012" style="enable-background:new 0 0 512 512" xml:space="preserve" class=""><g><g xmlns="http://www.w3.org/2000/svg" fill="#9bc9ff"><path d="m464.558594 415.121094-17.757813-21.28125c-9.558593-11.542969-14.792969-26.054688-14.800781-41.039063v-43.28125c0-44.339843-18.394531-86.691406-50.800781-116.960937l-69.199219-64.558594h-24v89.441406c50.195312 8.511719 85 54.75 79.300781 105.339844s-49.917969 87.925781-100.746093 85.058594c-50.832032-2.863282-90.574219-44.929688-90.554688-95.839844.027344-46.816406 33.835938-86.777344 80-94.558594v-89.441406h-24l-49.121094 45.839844-10.078125 9.441406h-.082031l-.71875.71875-9.199219 8.558594c-32.320312 30.328125-50.699219 72.640625-50.800781 116.960937v43.28125c-.003906 7.941407-1.496094 15.808594-4.398438 23.199219-2.421874 6.496094-5.941406 12.53125-10.402343 17.839844l-17.757813 21.28125c-4.742187 5.777344-7.367187 13.003906-7.441406 20.480468v4.398438c0 17.671875 14.328125 32 32 32h336c17.671875 0 32-14.328125 32-32v-4.398438c0-7.488281-2.632812-14.738281-7.441406-20.480468zm0 0" fill="#d09be5" data-original="#9bc9ff" style="" class=""/><path d="m172 184 .71875-.71875c-1.523438.488281-3.117188.734375-4.71875.71875zm0 0" fill="#d09be5" data-original="#9bc9ff" style="" class=""/><path d="m336 80 35.910156-46.175781c3.753906-4.824219 4.429688-11.363281 1.746094-16.851563-2.683594-5.488281-8.257812-8.96875-14.367188-8.972656h-31.90625c-4.136718 0-8.113281 1.601562-11.09375 4.472656l-14.632812 14.085938c-3.140625 3.019531-8.121094 2.96875-11.199219-.109375l-13.761719-13.761719c-3-3.003906-7.074218-4.6875-11.320312-4.6875h-72.664062c-6.109376.003906-11.683594 3.484375-14.367188 8.972656-2.683594 5.488282-2.007812 12.027344 1.746094 16.851563l35.910156 46.175781zm0 0" fill="#d09be5" data-original="#9bc9ff" style="" class=""/></g><path xmlns="http://www.w3.org/2000/svg" d="m264 240v16.464844c-22.96875 2.472656-40 15.414062-40 31.535156 0 17.945312 21.089844 32 48 32 18.320312 0 32 8.449219 32 16s-13.679688 16-32 16-32-8.449219-32-16h-16c0 16.121094 17.03125 29.0625 40 31.535156v16.464844h16v-16.464844c22.96875-2.472656 40-15.414062 40-31.535156 0-17.945312-21.089844-32-48-32-18.320312 0-32-8.449219-32-16s13.679688-16 32-16 32 8.449219 32 16h16c0-16.121094-17.03125-29.0625-40-31.535156v-16.464844zm0 0" fill="#9c43cd" data-original="#1e81ce" style="" class=""/><path xmlns="http://www.w3.org/2000/svg" d="m470.695312 409.992188-17.726562-21.238282c-8.359375-10.121094-12.941406-22.828125-12.96875-35.953125v-43.28125c-.058594-46.546875-19.363281-90.996093-53.34375-122.808593l-56.34375-52.566407c10.148438-3.359375 17.914062-11.609375 20.65625-21.941406s.089844-21.347656-7.058594-29.300781l34.355469-44.167969c5.628906-7.238281 6.644531-17.054687 2.609375-25.292969-4.035156-8.238281-12.414062-13.4531248-21.585938-13.441406h-31.90625c-6.207031-.0078125-12.171874 2.394531-16.640624 6.703125l-14.636719 14.097656-13.761719-13.769531c-4.492188-4.519531-10.605469-7.0507812-16.976562-7.03125h-72.65625c-9.164063 0-17.53125 5.222656-21.558594 13.457031s-3.011719 18.042969 2.617187 25.277344l31.03125 39.859375c-9.480469 7.0625-14.246093 18.804688-12.371093 30.476562 1.875 11.671876 10.078124 21.332032 21.289062 25.074219l-21.71875 20.253907v-2.398438c0-13.253906-10.746094-24-24-24h-144c-13.253906 0-24 10.746094-24 24v16c0 13.253906 10.746094 24 24 24h9.472656c-.949218 2.5625-1.445312 5.269531-1.472656 8v16c.027344 2.730469.523438 5.4375 1.472656 8h-9.472656c-13.253906 0-24 10.746094-24 24v16c0 13.253906 10.746094 24 24 24h1.472656c-.949218 2.5625-1.445312 5.269531-1.472656 8v16c.027344 2.730469.523438 5.4375 1.472656 8h-1.472656c-13.253906 0-24 10.746094-24 24v16c0 13.253906 10.746094 24 24 24h1.472656c-.949218 2.5625-1.445312 5.269531-1.472656 8v16c.027344 2.730469.523438 5.4375 1.472656 8h-1.472656c-13.253906 0-24 10.746094-24 24v16c0 13.253906 10.746094 24 24 24h416c22.082031-.027344 39.972656-17.917969 40-40v-4.398438c-.015625-9.363281-3.308594-18.421874-9.304688-25.609374zm-284.296874-381.089844c-1.871094-2.410156-2.207032-5.675782-.863282-8.417969 1.339844-2.742187 4.125-4.480469 7.175782-4.484375h72.65625c2.125 0 4.164062.839844 5.664062 2.34375l13.769531 13.777344c6.1875 6.101562 16.101563 6.191406 22.398438.199218l14.632812-14.089843c1.492188-1.433594 3.480469-2.234375 5.550781-2.230469h31.90625c3.050782.003906 5.835938 1.742188 7.175782 4.484375 1.34375 2.742187 1.007812 6.007813-.863282 8.417969l-33.511718 43.097656h-112.179688zm21.601562 75.097656c0-8.835938 7.164062-16 16-16h96c8.835938 0 16 7.164062 16 16s-7.164062 16-16 16h-96c-8.835938 0-16-7.164062-16-16zm72 104.40625c-2.648438-.207031-5.296875-.40625-8-.40625s-5.351562.199219-8 .40625v-72.40625h16zm80 103.59375c0 48.601562-39.398438 88-88 88s-88-39.398438-88-88 39.398438-88 88-88c48.578125.058594 87.941406 39.421875 88 88zm-344-144v-16c0-4.417969 3.582031-8 8-8h144c4.417969 0 8 3.582031 8 8v16c-.046875.542969-.152344 1.078125-.3125 1.601562l-6.710938 6.261719c-.324218.066407-.648437.113281-.976562.136719v-16h-16v16h-16v-16h-16v16h-16v-16h-16v16h-16v-16h-16v16h-16v-16h-16v16c-4.417969 0-8-3.582031-8-8zm32 48v-16c0-4.417969 3.582031-8 8-8h96.089844c-9.457032 9.621094-17.695313 20.367188-24.53125 32h-23.558594v-16h-16v16h-16v-16h-16v16c-4.417969 0-8-3.582031-8-8zm-32 48v-16c0-4.417969 3.582031-8 8-8h95.070312c-4.636718 10.273438-8.207031 20.996094-10.652343 32h-4.417969v-16h-16v16h-16v-16h-16v16h-16v-16h-16v16c-4.417969 0-8-3.582031-8-8zm24 48v-16c0-4.417969 3.582031-8 8-8h57.417969c-.9375 7.136719-1.410157 14.324219-1.417969 21.519531v10.480469h-8v-16h-16v16h-16v-16h-16v16c-4.417969 0-8-3.582031-8-8zm-24 48v-16c0-4.417969 3.582031-8 8-8h80v16.800781c-.003906 5.140625-.726562 10.257813-2.144531 15.199219h-29.855469v-16h-16v16h-16v-16h-16v16c-4.417969 0-8-3.582031-8-8zm24 48v-16c0-4.417969 3.582031-8 8-8h46.398438c-1.015626 1.632812-2.125 3.210938-3.320313 4.71875l-17.710937 21.21875c-1.566407 1.882812-2.949219 3.914062-4.128907 6.0625h-5.238281v-16h-16v16c-4.417969 0-8-3.582031-8-8zm0 56v-16h-16v16c-4.417969 0-8-3.582031-8-8v-16c0-4.417969 3.582031-8 8-8h40.34375c-.113281 1.199219-.34375 2.398438-.34375 3.601562v4.398438c.03125 8.683594 2.914062 17.117188 8.207031 24zm424-24c0 13.253906-10.746094 24-24 24h-336c-13.253906 0-24-10.746094-24-24v-4.398438c-.015625-3.019531.570312-6.011718 1.726562-8.800781.902344-2.398437 2.207032-4.621093 3.859376-6.578125l17.75-21.269531c5.019531-5.96875 8.980468-12.75 11.710937-20.058594 3.273437-8.308593 4.953125-17.164062 4.953125-26.09375v-43.28125c.011719-9.394531.902344-18.769531 2.664062-28 5.984376-31.820312 21.957032-60.90625 45.601563-83.03125l66.886719-62.488281h12.847656v74.902344c-51.339844 12.179687-85.425781 60.871094-79.296875 113.277344s50.53125 91.917968 103.296875 91.917968 97.167969-39.511718 103.296875-91.917968-27.957031-101.097657-79.296875-113.277344v-74.902344h12.847656l66.894532 62.398438c30.742187 28.789062 48.210937 69.007812 48.257812 111.121093v43.28125c.027344 16.855469 5.917969 33.179688 16.664062 46.167969l17.734376 21.261719c3.605468 4.3125 5.585937 9.75 5.601562 15.371093zm0 0" fill="#9c43cd" data-original="#1e81ce" style="" class=""/></g></svg>
